<svg xmlns="http://www.w3.org/2000/svg" xmlns:xlink="http://www.w3.org/1999/xlink" width="500" zoomAndPan="magnify" viewBox="0 0 375 374.999991" height="500" preserveAspectRatio="xMidYMid meet" version="1.0"><defs><g/><clipPath id="0b3608dd28"><path d="M 24 28 L 369.175781 28 L 369.175781 372.28125 L 24 372.28125 Z M 24 28 " clip-rule="nonzero"/></clipPath><clipPath id="594430cd5b"><path d="M 83 2.53125 L 151 2.53125 L 151 73 L 83 73 Z M 83 2.53125 " clip-rule="nonzero"/></clipPath><clipPath id="247e1ceaa5"><path d="M 6.175781 113 L 29 113 L 29 192 L 6.175781 192 Z M 6.175781 113 " clip-rule="nonzero"/></clipPath></defs><g clip-path="url(#0b3608dd28)"><path fill="#e8c32a" d="M 196.996094 372.125 C 173.753906 372.125 151.203125 367.582031 129.972656 358.617188 C 109.46875 349.957031 91.054688 337.5625 75.242188 321.769531 C 59.433594 305.980469 47.015625 287.597656 38.34375 267.125 C 29.363281 245.925781 24.8125 223.410156 24.8125 200.203125 C 24.8125 176.996094 29.363281 154.476562 38.34375 133.28125 C 47.015625 112.808594 59.429688 94.421875 75.242188 78.632812 C 91.058594 62.847656 109.46875 50.449219 129.972656 41.789062 C 151.203125 32.824219 173.753906 28.28125 196.996094 28.28125 C 220.238281 28.28125 242.789062 32.824219 264.015625 41.789062 C 284.519531 50.449219 302.9375 62.84375 318.746094 78.632812 C 334.554688 94.425781 346.972656 112.808594 355.648438 133.28125 C 364.625 154.476562 369.175781 176.996094 369.175781 200.203125 C 369.175781 229.472656 361.679688 258.378906 347.492188 283.789062 C 347.144531 284.410156 346.363281 284.632812 345.742188 284.285156 C 345.121094 283.9375 344.894531 283.160156 345.242188 282.535156 C 359.214844 257.507812 366.601562 229.035156 366.601562 200.203125 C 366.601562 106.824219 290.515625 30.851562 196.996094 30.851562 C 103.476562 30.851562 27.390625 106.824219 27.390625 200.203125 C 27.390625 293.582031 103.476562 369.554688 196.996094 369.554688 C 217.90625 369.554688 238.320312 365.800781 257.667969 358.398438 C 258.332031 358.144531 259.074219 358.472656 259.332031 359.140625 C 259.585938 359.804688 259.253906 360.546875 258.589844 360.800781 C 238.941406 368.3125 218.21875 372.125 196.996094 372.125 Z M 196.996094 372.125 " fill-opacity="1" fill-rule="nonzero"/></g><g clip-path="url(#594430cd5b)"><path fill="#e8c32a" d="M 84.753906 72.820312 C 84.613281 72.820312 84.476562 72.800781 84.332031 72.753906 C 83.722656 72.542969 83.363281 71.910156 83.492188 71.28125 C 85.464844 61.617188 87.285156 55.96875 92.324219 49.992188 C 95.34375 46.410156 99.109375 43.453125 102.402344 40.960938 C 110.738281 34.652344 119.542969 28.761719 128.574219 23.457031 L 129.867188 22.699219 C 133.828125 20.382812 137.929688 17.988281 141.210938 14.820312 C 144.40625 11.730469 146.851562 7.878906 148.28125 3.6875 C 148.496094 3.058594 149.160156 2.691406 149.808594 2.851562 C 150.457031 3.011719 150.878906 3.640625 150.777344 4.300781 C 149.578125 11.90625 146.546875 19.21875 142 25.453125 C 135.179688 34.800781 125.203125 41.433594 115.4375 47.207031 C 114.625 47.6875 113.816406 48.164062 113 48.640625 C 104.472656 53.640625 95.65625 58.804688 89.839844 66.636719 C 89.476562 67.121094 89.078125 67.625 88.671875 68.144531 C 87.628906 69.464844 86.546875 70.832031 85.910156 72.105469 C 85.6875 72.554688 85.230469 72.820312 84.753906 72.820312 Z M 94.296875 51.644531 C 90.746094 55.855469 88.933594 59.816406 87.433594 65.550781 C 87.550781 65.398438 87.660156 65.253906 87.769531 65.109375 C 93.902344 56.851562 102.949219 51.550781 111.699219 46.421875 C 112.511719 45.949219 113.320312 45.472656 114.128906 44.996094 C 123.65625 39.359375 133.378906 32.910156 139.921875 23.941406 C 142.148438 20.882812 143.996094 17.558594 145.414062 14.054688 C 144.664062 14.972656 143.859375 15.847656 143.003906 16.667969 C 139.496094 20.054688 135.261719 22.527344 131.167969 24.917969 L 129.878906 25.671875 C 120.933594 30.925781 112.214844 36.761719 103.957031 43.011719 C 100.632812 45.527344 97.148438 48.265625 94.296875 51.644531 Z M 94.296875 51.644531 " fill-opacity="1" fill-rule="nonzero"/></g><path fill="#e8c32a" d="M 74.363281 82.839844 C 73.984375 82.839844 73.617188 82.675781 73.363281 82.363281 C 72.957031 81.863281 72.980469 81.136719 73.425781 80.671875 C 80.210938 73.503906 84.75 69.664062 92.1875 67.25 C 96.644531 65.808594 101.40625 65.28125 105.519531 64.898438 C 115.9375 63.933594 126.527344 63.574219 137 63.835938 L 138.5 63.875 C 143.089844 63.996094 147.839844 64.125 152.304688 63.164062 C 156.65625 62.226562 160.769531 60.246094 164.199219 57.441406 C 164.71875 57.019531 165.46875 57.0625 165.9375 57.539062 C 166.40625 58.015625 166.425781 58.777344 165.988281 59.277344 C 160.949219 65.109375 154.503906 69.71875 147.351562 72.613281 C 136.617188 76.957031 124.632812 77.328125 113.289062 77.082031 C 112.347656 77.0625 111.402344 77.039062 110.457031 77.015625 C 100.574219 76.761719 90.355469 76.5 81.269531 80.082031 C 80.707031 80.300781 80.101562 80.519531 79.476562 80.75 C 77.894531 81.320312 76.253906 81.910156 75.039062 82.65625 C 74.828125 82.78125 74.59375 82.839844 74.363281 82.839844 Z M 92.984375 69.699219 C 87.742188 71.402344 84.109375 73.8125 79.804688 77.886719 C 79.980469 77.824219 80.15625 77.753906 80.324219 77.691406 C 89.894531 73.914062 100.382812 74.179688 110.527344 74.441406 C 111.464844 74.46875 112.40625 74.488281 113.347656 74.511719 C 124.421875 74.75 136.085938 74.398438 146.386719 70.230469 C 149.894531 68.8125 153.222656 66.957031 156.28125 64.730469 C 155.160156 65.113281 154.015625 65.433594 152.855469 65.683594 C 148.085938 66.707031 143.179688 66.574219 138.4375 66.445312 L 136.945312 66.40625 C 126.570312 66.148438 116.082031 66.503906 105.765625 67.460938 C 101.605469 67.84375 97.191406 68.332031 92.984375 69.699219 Z M 92.984375 69.699219 " fill-opacity="1" fill-rule="nonzero"/><g clip-path="url(#247e1ceaa5)"><path fill="#e8c32a" d="M 26.496094 191.964844 C 26.101562 191.964844 25.722656 191.785156 25.472656 191.464844 C 22.164062 187.164062 19.773438 183.5 17.945312 179.941406 C 12.632812 169.574219 10.992188 157.710938 10.085938 147.46875 C 9.859375 144.917969 9.664062 142.316406 9.480469 139.800781 C 8.859375 131.515625 8.226562 122.941406 6.304688 114.777344 C 6.167969 114.203125 6.449219 113.605469 6.976562 113.335938 C 7.503906 113.066406 8.148438 113.191406 8.535156 113.640625 C 17.164062 123.582031 22.792969 133.238281 25.75 143.164062 C 29.125 154.507812 28.886719 166.433594 28.304688 175.558594 C 28.003906 180.25 27.863281 184.640625 27.867188 188.984375 C 27.867188 189.601562 27.839844 190.195312 27.785156 190.800781 C 27.738281 191.328125 27.367188 191.769531 26.859375 191.917969 C 26.738281 191.949219 26.617188 191.964844 26.496094 191.964844 Z M 20.238281 178.765625 C 21.558594 181.339844 23.199219 183.980469 25.292969 186.90625 C 25.328125 183.183594 25.472656 179.394531 25.726562 175.394531 C 26.296875 166.488281 26.535156 154.855469 23.277344 143.898438 C 20.816406 135.628906 16.40625 127.53125 9.84375 119.253906 C 11.035156 126.019531 11.546875 132.90625 12.046875 139.613281 C 12.230469 142.117188 12.425781 144.707031 12.652344 147.246094 C 13.53125 157.234375 15.125 168.792969 20.238281 178.765625 Z M 20.238281 178.765625 " fill-opacity="1" fill-rule="nonzero"/></g><path fill="#e8c32a" d="M 28.234375 182.695312 C 28.113281 182.695312 27.996094 182.679688 27.875 182.644531 C 27.289062 182.472656 26.902344 181.917969 26.953125 181.3125 C 27.09375 179.460938 27.390625 177.472656 27.851562 175.234375 C 28.878906 170.320312 30.101562 166.390625 31.707031 162.871094 C 35.886719 153.703125 43.167969 146.425781 50.210938 139.394531 C 57.515625 132.101562 65.066406 124.554688 68.824219 115.058594 C 69.035156 114.53125 69.558594 114.207031 70.125 114.25 C 70.691406 114.296875 71.160156 114.703125 71.28125 115.261719 C 73.53125 125.636719 69.871094 137.804688 61.246094 148.644531 C 56.425781 154.699219 50.605469 159.945312 44.976562 165.019531 C 42.058594 167.652344 39.039062 170.371094 36.214844 173.164062 C 33.179688 176.152344 30.867188 178.78125 29.425781 181.910156 C 29.40625 181.945312 29.386719 181.988281 29.367188 182.023438 C 29.140625 182.445312 28.699219 182.695312 28.234375 182.695312 Z M 69.324219 120.117188 C 65.074219 128.183594 58.460938 134.789062 52.03125 141.210938 C 45.152344 148.085938 38.039062 155.191406 34.054688 163.9375 C 32.542969 167.253906 31.378906 170.976562 30.398438 175.648438 C 31.648438 174.113281 33.027344 172.6875 34.402344 171.332031 C 37.269531 168.5 40.308594 165.761719 43.25 163.109375 C 48.796875 158.105469 54.539062 152.929688 59.226562 147.039062 C 66.183594 138.300781 69.734375 128.71875 69.324219 120.117188 Z M 69.324219 120.117188 " fill-opacity="1" fill-rule="nonzero"/><path fill="#e8c32a" d="M 31.089844 155.441406 C 31.03125 155.441406 30.972656 155.4375 30.914062 155.429688 C 30.320312 155.347656 29.867188 154.871094 29.804688 154.28125 C 27.109375 126.347656 31.40625 97.917969 42.238281 72.066406 C 42.480469 71.484375 43.113281 71.167969 43.726562 71.3125 C 44.339844 71.457031 44.757812 72.03125 44.710938 72.664062 C 44.242188 78.714844 44.371094 84.929688 44.492188 90.9375 C 44.617188 97.15625 44.75 103.585938 44.230469 109.917969 C 43.027344 124.527344 38.585938 138.359375 32.292969 154.625 C 32.097656 155.121094 31.617188 155.441406 31.089844 155.441406 Z M 41.816406 80.199219 C 33.878906 101.917969 30.488281 125.230469 31.921875 148.34375 C 37.054688 134.550781 40.621094 122.394531 41.660156 109.703125 C 42.171875 103.503906 42.039062 97.144531 41.914062 90.992188 C 41.84375 87.445312 41.769531 83.828125 41.816406 80.199219 Z M 41.816406 80.199219 " fill-opacity="1" fill-rule="nonzero"/><path fill="#e8c32a" d="M 43.183594 124.085938 C 42.894531 124.085938 42.605469 123.992188 42.371094 123.796875 C 41.890625 123.410156 41.757812 122.738281 42.042969 122.195312 C 43.707031 119.082031 46.214844 115.96875 49.933594 112.40625 C 65.785156 97.214844 85.445312 86.464844 106.800781 81.3125 C 107.355469 81.179688 107.9375 81.429688 108.21875 81.925781 C 108.503906 82.425781 108.425781 83.050781 108.027344 83.460938 C 99.738281 92.003906 91.175781 100.832031 80.371094 106.632812 C 75.917969 109.023438 70.78125 110.964844 65.820312 112.839844 C 57.996094 115.792969 49.90625 118.851562 44.011719 123.789062 C 43.769531 123.984375 43.476562 124.085938 43.183594 124.085938 Z M 51.71875 114.257812 C 50.496094 115.433594 49.414062 116.546875 48.453125 117.628906 C 53.539062 114.726562 59.289062 112.550781 64.90625 110.429688 C 70.019531 108.496094 74.84375 106.675781 79.152344 104.363281 C 88.234375 99.484375 95.785156 92.289062 102.960938 84.976562 C 83.765625 90.378906 66.132812 100.445312 51.71875 114.257812 Z M 51.71875 114.257812 " fill-opacity="1" fill-rule="nonzero"/><path fill="#e8c32a" d="M 50.707031 111.734375 C 50.617188 111.734375 50.527344 111.722656 50.4375 111.703125 C 49.988281 111.609375 49.621094 111.277344 49.480469 110.839844 C 48.6875 108.390625 48.359375 105.609375 48.539062 102.8125 C 48.855469 97.996094 50.488281 93.464844 52.207031 89.285156 C 54.167969 84.5 56.414062 79.765625 58.589844 75.1875 C 61 70.101562 63.496094 64.847656 65.585938 59.542969 C 69.464844 49.726562 70.921875 28.304688 70.933594 28.089844 C 70.976562 27.445312 71.492188 26.929688 72.140625 26.890625 C 72.785156 26.851562 73.363281 27.296875 73.484375 27.9375 C 73.710938 29.136719 78.984375 57.507812 75.4375 71.464844 C 71.128906 88.417969 57.378906 104.976562 51.664062 111.304688 C 51.417969 111.582031 51.070312 111.734375 50.707031 111.734375 Z M 51.113281 102.976562 C 51.003906 104.613281 51.09375 106.230469 51.367188 107.757812 C 57.59375 100.59375 69.136719 85.8125 72.941406 70.835938 C 75.0625 62.492188 73.796875 48.222656 72.523438 38.5625 C 71.679688 45.652344 70.238281 54.785156 67.988281 60.484375 C 65.863281 65.867188 63.351562 71.167969 60.917969 76.289062 C 58.761719 80.839844 56.53125 85.542969 54.59375 90.261719 C 52.957031 94.242188 51.40625 98.535156 51.113281 102.976562 Z M 51.113281 102.976562 " fill-opacity="1" fill-rule="nonzero"/><path fill="#e8c32a" d="M 275.574219 353.261719 C 275.570312 353.773438 275.472656 354.265625 275.277344 354.738281 C 275.082031 355.210938 274.800781 355.628906 274.441406 355.988281 C 274.078125 356.351562 273.660156 356.628906 273.1875 356.824219 C 272.714844 357.023438 272.21875 357.121094 271.707031 357.121094 C 271.195312 357.121094 270.703125 357.023438 270.230469 356.824219 C 269.753906 356.628906 269.335938 356.351562 268.976562 355.988281 C 268.613281 355.628906 268.332031 355.210938 268.136719 354.738281 C 267.941406 354.265625 267.84375 353.773438 267.84375 353.261719 C 267.84375 352.75 267.941406 352.257812 268.136719 351.785156 C 268.332031 351.3125 268.613281 350.894531 268.976562 350.53125 C 269.335938 350.171875 269.753906 349.890625 270.230469 349.695312 C 270.703125 349.5 271.195312 349.402344 271.707031 349.402344 C 272.21875 349.402344 272.714844 349.5 273.1875 349.695312 C 273.660156 349.890625 274.078125 350.171875 274.441406 350.53125 C 274.800781 350.894531 275.082031 351.3125 275.277344 351.785156 C 275.472656 352.257812 275.570312 352.75 275.574219 353.261719 Z M 275.574219 353.261719 " fill-opacity="1" fill-rule="nonzero"/><path fill="#e8c32a" d="M 301.054688 337.980469 C 301.054688 338.492188 300.957031 338.984375 300.761719 339.457031 C 300.566406 339.929688 300.285156 340.347656 299.925781 340.710938 C 299.5625 341.070312 299.144531 341.351562 298.671875 341.546875 C 298.195312 341.742188 297.703125 341.839844 297.191406 341.839844 C 296.679688 341.839844 296.1875 341.742188 295.710938 341.546875 C 295.238281 341.351562 294.820312 341.070312 294.460938 340.710938 C 294.097656 340.347656 293.816406 339.929688 293.621094 339.457031 C 293.425781 338.984375 293.328125 338.492188 293.328125 337.980469 C 293.328125 337.46875 293.425781 336.976562 293.621094 336.503906 C 293.816406 336.03125 294.097656 335.613281 294.460938 335.253906 C 294.820312 334.890625 295.238281 334.613281 295.710938 334.414062 C 296.1875 334.21875 296.679688 334.121094 297.191406 334.121094 C 297.703125 334.121094 298.195312 334.21875 298.671875 334.414062 C 299.144531 334.613281 299.5625 334.890625 299.925781 335.253906 C 300.285156 335.613281 300.566406 336.03125 300.761719 336.503906 C 300.957031 336.976562 301.054688 337.46875 301.054688 337.980469 Z M 301.054688 337.980469 " fill-opacity="1" fill-rule="nonzero"/><path fill="#e8c32a" d="M 323.496094 318.515625 C 323.496094 319.027344 323.398438 319.519531 323.203125 319.992188 C 323.003906 320.464844 322.726562 320.882812 322.363281 321.246094 C 322 321.605469 321.582031 321.886719 321.109375 322.082031 C 320.636719 322.277344 320.144531 322.375 319.632812 322.375 C 319.117188 322.375 318.625 322.277344 318.152344 322.082031 C 317.679688 321.886719 317.261719 321.605469 316.898438 321.246094 C 316.535156 320.882812 316.257812 320.464844 316.0625 319.992188 C 315.863281 319.519531 315.765625 319.027344 315.765625 318.515625 C 315.765625 318.003906 315.863281 317.511719 316.0625 317.039062 C 316.257812 316.566406 316.535156 316.148438 316.898438 315.789062 C 317.261719 315.425781 317.679688 315.148438 318.152344 314.953125 C 318.625 314.753906 319.117188 314.65625 319.632812 314.65625 C 320.144531 314.65625 320.636719 314.753906 321.109375 314.953125 C 321.582031 315.148438 322 315.425781 322.363281 315.789062 C 322.726562 316.148438 323.003906 316.566406 323.203125 317.039062 C 323.398438 317.511719 323.496094 318.003906 323.496094 318.515625 Z M 323.496094 318.515625 " fill-opacity="1" fill-rule="nonzero"/><path fill="#e8c32a" d="M 342.207031 295.453125 C 342.207031 295.964844 342.109375 296.457031 341.914062 296.929688 C 341.71875 297.402344 341.4375 297.820312 341.078125 298.183594 C 340.714844 298.542969 340.296875 298.824219 339.824219 299.019531 C 339.347656 299.214844 338.855469 299.3125 338.34375 299.3125 C 337.832031 299.3125 337.339844 299.214844 336.863281 299.019531 C 336.390625 298.824219 335.972656 298.542969 335.609375 298.183594 C 335.25 297.820312 334.96875 297.402344 334.773438 296.929688 C 334.578125 296.457031 334.480469 295.964844 334.480469 295.453125 C 334.480469 294.941406 334.578125 294.449219 334.773438 293.976562 C 334.96875 293.503906 335.25 293.089844 335.609375 292.726562 C 335.972656 292.363281 336.390625 292.085938 336.863281 291.890625 C 337.339844 291.695312 337.832031 291.597656 338.34375 291.597656 C 338.855469 291.597656 339.347656 291.695312 339.824219 291.890625 C 340.296875 292.085938 340.714844 292.363281 341.078125 292.726562 C 341.4375 293.089844 341.71875 293.503906 341.914062 293.976562 C 342.109375 294.449219 342.207031 294.941406 342.207031 295.453125 Z M 342.207031 295.453125 " fill-opacity="1" fill-rule="nonzero"/><g fill="#e8c32a" fill-opacity="1"><g transform="translate(89.964498, 240.713715)"><g><path d="M 108.96875 -89.203125 C 108.96875 -86.722656 107.957031 -83.851562 105.9375 -80.59375 C 104.25 -77.550781 102.359375 -75.46875 100.265625 -74.34375 C 98.179688 -73.21875 97.140625 -73.328125 97.140625 -74.671875 C 97.140625 -74.785156 97.757812 -75.460938 99 -76.703125 C 102.71875 -80.191406 104.578125 -83.066406 104.578125 -85.328125 C 104.578125 -90.171875 99.789062 -92.59375 90.21875 -92.59375 C 86.164062 -92.59375 80.816406 -91.832031 74.171875 -90.3125 C 67.523438 -88.789062 61.101562 -86.335938 54.90625 -82.953125 C 47.695312 -79.015625 44.09375 -75.582031 44.09375 -72.65625 C 44.09375 -70.289062 46.289062 -68.035156 50.6875 -65.890625 C 53.050781 -64.765625 57.753906 -62.878906 64.796875 -60.234375 C 71.835938 -57.585938 77.523438 -55.273438 81.859375 -53.296875 C 86.191406 -51.328125 90.300781 -48.539062 94.1875 -44.9375 C 98.070312 -41.332031 100.015625 -37.332031 100.015625 -32.9375 C 100.015625 -28.550781 97.425781 -23.765625 92.25 -18.578125 C 84.363281 -11.035156 74.113281 -4.757812 61.5 0.25 C 48.882812 5.257812 38.070312 7.765625 29.0625 7.765625 C 11.257812 7.765625 2.359375 2.753906 2.359375 -7.265625 C 2.359375 -17.285156 7.820312 -25.789062 18.75 -32.78125 C 27.757812 -38.96875 37.222656 -42.0625 47.140625 -42.0625 C 49.503906 -42.0625 50.570312 -41.671875 50.34375 -40.890625 C 50.125 -40.097656 48.4375 -39.671875 45.28125 -39.609375 C 42.125 -39.554688 38.066406 -38.488281 33.109375 -36.40625 C 28.160156 -34.320312 23.546875 -31.3125 19.265625 -27.375 C 13.628906 -22.300781 10.8125 -17.234375 10.8125 -12.171875 C 10.8125 -9.015625 12.332031 -6.195312 15.375 -3.71875 C 18.414062 -1.238281 24.21875 0 32.78125 0 C 41.34375 0 49.789062 -1.351562 58.125 -4.0625 C 76.144531 -10.03125 87.40625 -16.5625 91.90625 -23.65625 C 93.707031 -26.25 94.609375 -28.445312 94.609375 -30.25 C 94.609375 -35.425781 91.457031 -39.476562 85.15625 -42.40625 C 77.832031 -45.78125 67.582031 -49.664062 54.40625 -54.0625 C 49.332031 -55.75 45.019531 -57.972656 41.46875 -60.734375 C 37.925781 -63.492188 36.15625 -66.816406 36.15625 -70.703125 C 36.15625 -74.585938 38.265625 -78.414062 42.484375 -82.1875 C 46.710938 -85.96875 51.8125 -88.984375 57.78125 -91.234375 C 70.625 -96.078125 81.492188 -98.5 90.390625 -98.5 C 102.773438 -98.5 108.96875 -95.398438 108.96875 -89.203125 Z M 108.96875 -89.203125 "/></g></g></g><g fill="#e8c32a" fill-opacity="1"><g transform="translate(189.982478, 240.713715)"><g><path d="M 45.78125 -9.796875 C 46.125 -9.796875 46.296875 -9.457031 46.296875 -8.78125 C 46.296875 -8.101562 45.503906 -6.976562 43.921875 -5.40625 L 42.234375 -2.875 C 39.191406 1.75 36.96875 4.453125 35.5625 5.234375 C 34.15625 6.023438 33.03125 6.421875 32.1875 6.421875 C 31.34375 6.421875 30.046875 6.222656 28.296875 5.828125 C 26.554688 5.429688 25.65625 5.007812 25.59375 4.5625 C 25.539062 4.113281 25.515625 3.15625 25.515625 1.6875 C 25.515625 0.226562 26.582031 -3.285156 28.71875 -8.859375 C 30.863281 -14.441406 33.34375 -19.9375 36.15625 -25.34375 C 41.332031 -35.476562 46.515625 -45.273438 51.703125 -54.734375 C 52.710938 -56.648438 53.21875 -58.144531 53.21875 -59.21875 C 53.21875 -60.289062 53.050781 -61.109375 52.71875 -61.671875 C 53.394531 -64.929688 56.179688 -69.09375 61.078125 -74.15625 C 65.972656 -79.226562 70.453125 -81.765625 74.515625 -81.765625 C 76.316406 -81.765625 78.507812 -81.0625 81.09375 -79.65625 C 83.6875 -78.25 84.816406 -76.421875 84.484375 -74.171875 C 83.691406 -74.734375 82.957031 -75.015625 82.28125 -75.015625 C 77.550781 -75.015625 71.640625 -70.394531 64.546875 -61.15625 C 52.710938 -45.84375 42.6875 -28.273438 34.46875 -8.453125 C 33.5625 -6.085938 33.109375 -4.476562 33.109375 -3.625 C 33.109375 -2.78125 33.109375 -2.25 33.109375 -2.03125 C 33.566406 -0.90625 34.5 -0.566406 35.90625 -1.015625 C 37.3125 -1.460938 38.632812 -2.476562 39.875 -4.0625 C 42.800781 -7.882812 44.769531 -9.796875 45.78125 -9.796875 Z M 110.15625 -82.625 C 111.0625 -84.082031 112.414062 -85.769531 114.21875 -87.6875 C 109.257812 -87.800781 101.820312 -88.25 91.90625 -89.03125 C 79.632812 -90.050781 71.242188 -90.5625 66.734375 -90.5625 C 62.234375 -90.5625 55.984375 -90.164062 47.984375 -89.375 C 37.285156 -87.914062 28.078125 -84.957031 20.359375 -80.5 C 12.640625 -76.050781 8.050781 -70.453125 6.59375 -63.703125 C 6.363281 -63.023438 6.25 -62.207031 6.25 -61.25 C 6.25 -60.289062 6.554688 -59.132812 7.171875 -57.78125 C 7.796875 -56.425781 8.554688 -55.351562 9.453125 -54.5625 C 10.359375 -53.78125 11.738281 -52.828125 13.59375 -51.703125 C 15.457031 -50.578125 16.695312 -49.757812 17.3125 -49.25 C 17.9375 -48.738281 18.050781 -48.3125 17.65625 -47.96875 C 17.257812 -47.632812 16.863281 -47.46875 16.46875 -47.46875 C 16.070312 -47.46875 15.648438 -47.523438 15.203125 -47.640625 C 11.378906 -48.765625 8.140625 -50.875 5.484375 -53.96875 C 2.835938 -57.070312 1.515625 -59.664062 1.515625 -61.75 C 1.515625 -63.832031 1.796875 -65.609375 2.359375 -67.078125 C 2.359375 -68.316406 2.414062 -69.21875 2.53125 -69.78125 C 4.21875 -77.769531 9.34375 -83.960938 17.90625 -88.359375 C 28.15625 -93.648438 40.769531 -96.296875 55.75 -96.296875 C 64.875 -96.296875 76.84375 -95.28125 91.65625 -93.25 C 106.46875 -91.226562 114.71875 -90.21875 116.40625 -90.21875 C 119.445312 -93.601562 121.753906 -95.347656 123.328125 -95.453125 C 123.898438 -95.566406 124.691406 -95.625 125.703125 -95.625 C 126.710938 -95.625 127.613281 -95.257812 128.40625 -94.53125 C 129.195312 -93.800781 129.59375 -93.039062 129.59375 -92.25 C 129.59375 -91.457031 129.253906 -90.664062 128.578125 -89.875 C 127.898438 -89.09375 126.519531 -87.941406 124.4375 -86.421875 C 122.351562 -84.898438 120.691406 -83.519531 119.453125 -82.28125 C 113.597656 -76.425781 110.671875 -71.300781 110.671875 -66.90625 C 110.671875 -64.988281 111.0625 -63.4375 111.84375 -62.25 C 112.632812 -61.070312 112.578125 -60.226562 111.671875 -59.71875 C 110.773438 -59.21875 109.820312 -59.585938 108.8125 -60.828125 C 107.675781 -61.722656 107.109375 -64.59375 107.109375 -69.4375 C 107.109375 -74.28125 108.125 -78.675781 110.15625 -82.625 Z M 110.15625 -82.625 "/></g></g></g></svg>